# xmcd CD database file
#
# Track frame offsets:
#	150
#	13647
#	31561
#	47786
#	67723
#	85205
#	103855
#	123967
#	142084
#	174603
#	183565
#	189722
#	209859
#	244693
#	264625
#	281069
#	303854
#
# Disc length: 4316 seconds
#
# Revision: 0
# Processed by: cddbd v1.5.1PL0 Copyright (c) Steve Scherf et al.
# Submitted via: CDex 1.51
#
DISCID=f610da11
DTITLE=The Animals and Sonny Boy Williamson - Pontiac Blues
DYEAR=2001
DGENRE=Blues
TTITLE0=Sonny's Slow Walk
TTITLE1=Pontiac Blues
TTITLE2=My Babe
TTITLE3=I Don't Care No More
TTITLE4=Baby Don't You Worry
TTITLE5=Nighttime Is The Right Time
TTITLE6=I'm Gonna Put You Down
TTITLE7=Fattening Frogs For Snakes
TTITLE8=Nobody But You
TTITLE9=Bye Bye Sonny Bye Bye
TTITLE10=Coda
TTITLE11=Gotta Find My Baby
TTITLE12=Bo Diddley
TTITLE13=Almost Grown
TTITLE14=Dimples
TTITLE15=Boom Boom
TTITLE16=C Jam Blues
EXTD=YEAR: 2001
EXTT0=
EXTT1=
EXTT2=
EXTT3=
EXTT4=
EXTT5=
EXTT6=
EXTT7=
EXTT8=
EXTT9=
EXTT10=
EXTT11=
EXTT12=
EXTT13=
EXTT14=
EXTT15=
EXTT16=
PLAYORDER=
